<?xml version='1.0' encoding='utf-8'?>
<svg xmlns="http://www.w3.org/2000/svg" fill="none" viewBox="0 0 180 180" width="180" height="180"><defs><clipPath id="assetClipPath_drn1JJWp"><path d="m0 0 h 12 v 16 h -12 v -16 z" id="path_1AUkots5" fill="#ffffff" /></clipPath><clipPath id="assetClipPath_uIiNtD5V"><path d="m0 0 h 11 v 14 h -11 v -14 z" id="path_xLL1-l1W" fill="#ffffff" /></clipPath><clipPath id="assetClipPath_uvMxdLKT"><path d="m0 0 h 12 v 16 h -12 v -16 z" id="path_zQGdI__l" fill="#ffffff" /></clipPath><clipPath id="assetClipPath_Ev-B_V0O"><path d="m0 0 h 11 v 14 h -11 v -14 z" id="path_6ON2TNQO" fill="#ffffff" /></clipPath><clipPath id="assetClipPath_6XaPi5TI"><path d="m0 0 h 12 v 16 h -12 v -16 z" id="path_SCQ6NaAH" fill="#ffffff" /></clipPath><clipPath id="assetClipPath_YjUsgZrd"><path d="m0 0 h 11 v 14 h -11 v -14 z" id="path_j5SsN9Ta" fill="#ffffff" /></clipPath><clipPath id="assetClipPath_RYookkH1"><path d="m0 0 h 12 v 16 h -12 v -16 z" id="path_i9iMBwgu" fill="#ffffff" /></clipPath><clipPath id="assetClipPath_My1CIpfi"><path d="m0 0 h 11 v 14 h -11 v -14 z" id="path_4vcQhAsO" fill="#ffffff" /></clipPath><clipPath id="assetClipPath_DsVa1XVu"><path d="m0 0 h 28 v 33 h -28 v -33 z" id="path_NEX7-mgO" fill="#ffffff" /></clipPath><clipPath id="assetClipPath_QPd1z5S1"><path d="m0 0 h 23 v 23 h -23 v -23 z" id="path_mLeMMAAu" fill="#ffffff" /></clipPath><clipPath id="assetClipPath_B2Ql7pSs"><path d="m0 0 h 23 v 23 h -23 v -23 z" id="path_VP7rlBa8" fill="#ffffff" /></clipPath><clipPath id="assetClipPath_TxUs5qRk"><path d="m0 0 h 25 v 30 h -25 v -30 z" id="path_cutyxkTk" fill="#ffffff" /></clipPath><clipPath id="assetClipPath_IufcKbOK"><path d="m0 0 h 21 v 21 h -21 v -21 z" id="path_H1Z2zjV2" fill="#ffffff" /></clipPath><clipPath id="assetClipPath_vN3cxxbJ"><path d="m0 0 h 21 v 21 h -21 v -21 z" id="path_dZnsx0Qc" fill="#ffffff" /></clipPath><clipPath id="clipPath_lSzyCUzI"><circle cx="40" cy="40" r="40" stroke="#E04F00" style="stroke-width:0;vector-effect:non-scaling-stroke;" /></clipPath><clipPath id="clipPath_R9BYptT0"><circle cx="40" cy="40" r="40" stroke="#CF4800" style="stroke-width:0;vector-effect:non-scaling-stroke;" /></clipPath><clipPath id="clipPath_MdP_acnX"><circle cx="40" cy="40" r="40" stroke="#E04F00" style="stroke-width:0;vector-effect:non-scaling-stroke;" /></clipPath><clipPath id="clipPath_RsobVnk1"><circle cx="40" cy="40" r="40" stroke="#CF4800" style="stroke-width:0;vector-effect:non-scaling-stroke;" /></clipPath><clipPath id="clipPath_3GOy9Qi0"><circle cx="40" cy="40" r="40" stroke="#E04F00" style="stroke-width:0;vector-effect:non-scaling-stroke;" /></clipPath><clipPath id="clipPath_Al5tsxGi"><circle cx="40" cy="40" r="40" stroke="#CF4800" style="stroke-width:0;vector-effect:non-scaling-stroke;" /></clipPath><clipPath id="clipPath__L9jlGoh"><circle cx="40" cy="40" r="40" stroke="#E04F00" style="stroke-width:0;vector-effect:non-scaling-stroke;" /></clipPath><clipPath id="clipPath_8mNI1LVB"><circle cx="40" cy="40" r="40" stroke="#CF4800" style="stroke-width:0;vector-effect:non-scaling-stroke;" /></clipPath><clipPath id="clipPath_2B7D40da"><circle cx="40" cy="40" r="40" stroke="#E04F00" style="stroke-width:0;vector-effect:non-scaling-stroke;" /></clipPath><clipPath id="clipPath_Fn1WGKoJ"><circle cx="40" cy="40" r="40" stroke="#E04F00" style="stroke-width:0;vector-effect:non-scaling-stroke;" /></clipPath><clipPath id="clipPath_eZqVQUJV"><circle cx="40" cy="40" r="40" stroke="#E04F00" style="stroke-width:0;vector-effect:non-scaling-stroke;" /></clipPath><clipPath id="clipPath_kFZqMWME"><circle cx="40" cy="40" r="40" stroke="#CF4800" style="stroke-width:0;vector-effect:non-scaling-stroke;" /></clipPath><clipPath id="clipPath_8LLTDPk6"><circle cx="40" cy="40" r="40" stroke="#CF4800" style="stroke-width:0;vector-effect:non-scaling-stroke;" /></clipPath><clipPath id="clipPath_XHzbms5Z"><circle cx="40" cy="40" r="40" stroke="#CF4800" style="stroke-width:0;vector-effect:non-scaling-stroke;" /></clipPath></defs><g transform="translate(3 12) rotate(-23.77486531608476 6 8)" data-asset-index="1"><g clip-path="url(#assetClipPath_drn1JJWp)" transform="scale(1 1)" data-asset-index="1"><circle cx="40" cy="40" r="40" fill="#FF935A" transform="scale(0.15 0.2)" clip-path="url(#clipPath_lSzyCUzI)" id="PcsN_yfMpQvsNxL6Mq_ZZ" stroke="#E04F00" style="stroke-width:0;vector-effect:non-scaling-stroke;" /></g></g><g transform="translate(3 13) rotate(-23.77486531608476 5.5 7)" data-asset-index="2"><g clip-path="url(#assetClipPath_uIiNtD5V)" transform="scale(1 1)" data-asset-index="2"><circle cx="40" cy="40" r="40" fill="#EDCCBA" transform="scale(0.1375 0.175)" clip-path="url(#clipPath_R9BYptT0)" id="f69E8mkWSU61emL-OpX7" stroke="#CF4800" style="stroke-width:0;vector-effect:non-scaling-stroke;" /></g></g><g transform="translate(14 1) rotate(-13.141069757714787 6 8)" data-asset-index="3"><g clip-path="url(#assetClipPath_uvMxdLKT)" transform="scale(1 1)" data-asset-index="3"><circle cx="40" cy="40" r="40" fill="#FF935A" transform="scale(0.15 0.2)" clip-path="url(#clipPath_MdP_acnX)" id="ZhBneaats9VGYMC-9sT-" stroke="#E04F00" style="stroke-width:0;vector-effect:non-scaling-stroke;" /></g></g><g transform="translate(13 2) rotate(-13.141069757714787 5.5 7)" data-asset-index="4"><g clip-path="url(#assetClipPath_Ev-B_V0O)" transform="scale(1 1)" data-asset-index="4"><circle cx="40" cy="40" r="40" fill="#EDCCBA" transform="scale(0.1375 0.175)" clip-path="url(#clipPath_RsobVnk1)" id="LewmT8mUJnwJ2UZ7VFLGv" stroke="#CF4800" style="stroke-width:0;vector-effect:non-scaling-stroke;" /></g></g><g transform="translate(31 1) rotate(13.209399720496512 6 8)" data-asset-index="5"><g clip-path="url(#assetClipPath_6XaPi5TI)" transform="scale(1 1)" data-asset-index="5"><circle cx="40" cy="40" r="40" fill="#FF935A" transform="scale(0.15 0.2)" clip-path="url(#clipPath_3GOy9Qi0)" id="IEPCEbNHNlBU-a7bH_AiK" stroke="#E04F00" style="stroke-width:0;vector-effect:non-scaling-stroke;" /></g></g><g transform="translate(31 1) rotate(13.209399720496512 5.5 7)" data-asset-index="6"><g clip-path="url(#assetClipPath_YjUsgZrd)" transform="scale(1 1)" data-asset-index="6"><circle cx="40" cy="40" r="40" fill="#EDCCBA" transform="scale(0.1375 0.175)" clip-path="url(#clipPath_Al5tsxGi)" id="eKNxPRc9dA9xQErtlqUje" stroke="#CF4800" style="stroke-width:0;vector-effect:non-scaling-stroke;" /></g></g><g transform="translate(43 12) rotate(12.31196180774761 6 8)" data-asset-index="7"><g clip-path="url(#assetClipPath_RYookkH1)" transform="scale(1 1)" data-asset-index="7"><circle cx="40" cy="40" r="40" fill="#FF935A" transform="scale(0.15 0.2)" clip-path="url(#clipPath__L9jlGoh)" id="yTrWunSKTeW7XgHTatr2Y" stroke="#E04F00" style="stroke-width:0;vector-effect:non-scaling-stroke;" /></g></g><g transform="translate(43 12) rotate(12.31196180774761 5.5 7)" data-asset-index="8"><g clip-path="url(#assetClipPath_My1CIpfi)" transform="scale(1 1)" data-asset-index="8"><circle cx="40" cy="40" r="40" fill="#EDCCBA" transform="scale(0.1375 0.175)" clip-path="url(#clipPath_8mNI1LVB)" id="YmC1vUe2F1N-rDgeUsmQ" stroke="#CF4800" style="stroke-width:0;vector-effect:non-scaling-stroke;" /></g></g><g transform="translate(16 20)" data-asset-index="9"><g clip-path="url(#assetClipPath_DsVa1XVu)" transform="scale(1 1)" data-asset-index="9"><circle cx="40" cy="40" r="40" fill="#FF935A" transform="scale(0.35 0.4125)" clip-path="url(#clipPath_2B7D40da)" id="BUvZvVvebx7WeDyNUtoO" stroke="#E04F00" style="stroke-width:0;vector-effect:non-scaling-stroke;" /></g></g><g transform="translate(11 33) rotate(-89.99999999999952 11.5 11.5)" data-asset-index="10"><g clip-path="url(#assetClipPath_QPd1z5S1)" transform="scale(1 1)" data-asset-index="10"><circle cx="40" cy="40" r="40" fill="#FF935A" transform="scale(0.2875 0.2875)" clip-path="url(#clipPath_Fn1WGKoJ)" id="ASACZ55Wdnv2jGX86URF" stroke="#E04F00" style="stroke-width:0;vector-effect:non-scaling-stroke;" /></g></g><g transform="translate(27 33) rotate(-89.99999999999952 11.5 11.5)" data-asset-index="11"><g clip-path="url(#assetClipPath_B2Ql7pSs)" transform="scale(1 1)" data-asset-index="11"><circle cx="40" cy="40" r="40" fill="#FF935A" transform="scale(0.2875 0.2875)" clip-path="url(#clipPath_eZqVQUJV)" id="pZiG749bqU6QnGSQsNp-k" stroke="#E04F00" style="stroke-width:0;vector-effect:non-scaling-stroke;" /></g></g><g transform="translate(16 21)" data-asset-index="12"><g clip-path="url(#assetClipPath_TxUs5qRk)" transform="scale(1 1)" data-asset-index="12"><circle cx="40" cy="40" r="40" fill="#EDCCBA" transform="scale(0.3125 0.375)" clip-path="url(#clipPath_kFZqMWME)" id="FRXNDlG34ag-qeltH3bB3" stroke="#CF4800" style="stroke-width:0;vector-effect:non-scaling-stroke;" /></g></g><g transform="translate(11 34) rotate(-89.99999999999952 10.5 10.5)" data-asset-index="13"><g clip-path="url(#assetClipPath_IufcKbOK)" transform="scale(1 1)" data-asset-index="13"><circle cx="40" cy="40" r="40" fill="#EDCCBA" transform="scale(0.2625 0.2625)" clip-path="url(#clipPath_8LLTDPk6)" id="M0LTV5sbgPWpuxlllrN0y" stroke="#CF4800" style="stroke-width:0;vector-effect:non-scaling-stroke;" /></g></g><g transform="translate(26 34) rotate(-89.99999999999952 10.5 10.5)" data-asset-index="14"><g clip-path="url(#assetClipPath_vN3cxxbJ)" transform="scale(1 1)" data-asset-index="14"><circle cx="40" cy="40" r="40" fill="#EDCCBA" transform="scale(0.2625 0.2625)" clip-path="url(#clipPath_XHzbms5Z)" id="UdRPnbuDIBKs0DyswXnBq" stroke="#CF4800" style="stroke-width:0;vector-effect:non-scaling-stroke;" /></g></g></svg>